<svg xmlns="http://www.w3.org/2000/svg" width="112" height="18" viewBox="0 0 112 18" fill="none">
    <path d="M0.188868 16.9486L0.0185547 13.4488H0.659742C0.870131 14.3513 1.26085 15.0833 1.83191 15.6449C2.40297 16.2065 2.98405 16.5775 3.58516 16.758C4.18627 16.9385 4.83749 17.0288 5.53879 17.0288C6.83118 17.0288 7.8731 16.7079 8.64453 16.0761C9.41596 15.4443 9.80669 14.5318 9.80669 13.3485C9.80669 12.3657 9.49612 11.6437 8.88498 11.2025C8.26383 10.7612 7.15177 10.2899 5.51875 9.79853C5.03786 9.64811 4.70724 9.54782 4.50686 9.48766C4.30649 9.42749 3.99592 9.32721 3.57515 9.17679C3.14435 9.02637 2.83378 8.896 2.64343 8.78569C2.44306 8.67538 2.18257 8.51493 1.87199 8.31437C1.5514 8.11381 1.31095 7.91325 1.16067 7.70266C1.00037 7.49207 0.840076 7.24137 0.659742 6.96058C0.479408 6.6798 0.35919 6.3589 0.28906 5.99789C0.21893 5.63688 0.188868 5.24578 0.188868 4.83463C0.188868 3.42067 0.649727 2.27747 1.57143 1.395C2.49314 0.512524 3.89574 0.0712891 5.77923 0.0712891C7.30205 0.0712891 8.68461 0.432302 9.91689 1.15432L10.7584 0.54261L11.029 0.813365L11.1993 4.29311H10.5581C10.2675 2.97943 9.70651 2.05685 8.88498 1.51534C8.06346 0.983847 7.1618 0.713086 6.17998 0.713086C5.01782 0.713086 4.08609 1.02396 3.38479 1.63567C2.68349 2.24739 2.34287 3.08975 2.34287 4.14269C2.34287 4.63407 2.42301 5.05525 2.57329 5.38618C2.73359 5.72713 3.01411 6.01794 3.42487 6.27867C3.83563 6.52938 4.21634 6.72994 4.56699 6.8603C4.91764 6.99067 5.47867 7.1812 6.2501 7.4319C6.89129 7.63247 7.3822 7.79291 7.71281 7.91325C8.04343 8.03359 8.48424 8.21409 9.0052 8.44474C9.52617 8.67538 9.93693 8.90603 10.2275 9.14671C10.518 9.38738 10.8085 9.67819 11.1191 10.0191C11.4197 10.3601 11.6401 10.7713 11.7703 11.2225C11.9006 11.6838 11.9707 12.1952 11.9707 12.7468C11.9707 14.2309 11.4698 15.4143 10.4579 16.2967C9.44602 17.1792 7.91318 17.6305 5.83933 17.6305C4.11614 17.6305 2.6334 17.2694 1.38108 16.5474L0.519483 17.2093L0.188868 16.9486Z" fill="white"/>
    <path d="M28.6919 1.07356V11.1317C28.6919 13.1173 28.0708 14.7017 26.8285 15.865C25.5862 17.0282 23.9631 17.6199 21.9394 17.6199C19.9156 17.6199 18.2926 17.0383 17.0503 15.865C15.808 14.7017 15.1869 13.1173 15.1869 11.1317V1.17384L13.5839 0.702522V0.231201H19.2945V0.702522L17.6915 1.1939V11.1317C17.6915 12.8465 18.1624 14.1702 19.0941 15.1129C20.0259 16.0555 21.2681 16.5268 22.811 16.5268C24.3739 16.5268 25.6362 16.0455 26.588 15.0928C27.5398 14.1401 28.0307 12.8164 28.0307 11.1217V1.04347L26.4277 0.572152V0.231201H30.2748V0.572152L28.6919 1.07356Z" fill="white"/>
    <path d="M45.072 4.91431C45.072 6.12771 44.6712 7.14055 43.8597 7.93277C43.0582 8.73501 41.9762 9.21636 40.6037 9.39686C41.2148 9.67765 41.836 10.3796 42.4772 11.5128L45.3625 16.587L46.8853 17.0082V17.4795H43.1885L38.7102 9.53726H35.8248V16.5369L37.4278 17.0082V17.4795H31.7172V17.0082L33.3202 16.4667V1.04347L31.7172 0.622296V0.231201H39.0809C40.8742 0.231201 42.3169 0.65238 43.4189 1.48471C44.521 2.32707 45.072 3.47027 45.072 4.91431ZM38.7402 0.943194H35.8349V8.85535H38.7402C39.8623 8.85535 40.754 8.51439 41.4252 7.83248C42.0965 7.15057 42.4371 6.16782 42.4371 4.88423C42.4371 3.62069 42.0965 2.64796 41.4252 1.96605C40.7439 1.29417 39.8523 0.943194 38.7402 0.943194Z" fill="white"/>
    <path d="M62.3339 10.1688V16.6068L61.9933 16.9277L60.761 16.316C59.3684 17.2085 57.7154 17.6497 55.8118 17.6497C53.217 17.6497 51.1532 16.8675 49.6204 15.2931C48.0875 13.7287 47.3161 11.5928 47.3161 8.89522C47.3161 6.19766 48.0875 4.06168 49.6304 2.47724C51.1732 0.892807 53.227 0.100586 55.7918 0.100586C57.7755 0.100586 59.4486 0.561882 60.7911 1.48447L61.7228 0.912866L62.0133 1.2137L62.1836 4.59317H61.5424C61.3321 3.84106 61.0115 3.19927 60.5807 2.66778C60.1499 2.14632 59.669 1.75522 59.128 1.50452C58.587 1.25382 58.086 1.09337 57.6252 1.00311C57.1643 0.912862 56.6935 0.862722 56.2226 0.862722C54.2389 0.862722 52.6961 1.54463 51.6141 2.91848C50.5321 4.29233 49.9911 6.27788 49.9911 8.87516C49.9911 11.2919 50.522 13.2173 51.584 14.6413C52.646 16.0753 54.1788 16.7873 56.2026 16.7873C57.6352 16.7873 58.8374 16.4263 59.8193 15.7043V10.1487L58.2163 9.67741V9.20608H63.8868V9.67741L62.3339 10.1688Z" fill="white"/>
    <path d="M69.4572 16.8277H77.0713L78.1032 14.3908H78.7144L78.5641 17.4996H65.3396V17.1085L66.9426 16.7174V1.04347L65.3396 0.622296V0.231201H78.3237L78.4739 3.33991H77.8628L76.8309 0.953224H69.4673V8.27372H75.3281L75.819 6.42856H76.3901V10.7908H75.819L75.3281 8.96566H69.4673V16.8277H69.4572Z" fill="white"/>
    <path d="M94.0826 4.91431C94.0826 6.12771 93.6819 7.14055 92.8704 7.93277C92.0689 8.73501 90.9869 9.21636 89.6144 9.39686C90.2255 9.67765 90.8467 10.3796 91.4878 11.5128L94.3732 16.587L95.896 17.0082V17.4795H92.1992L87.7209 9.53726H84.8355V16.5369L86.4385 17.0082V17.4795H80.7279V17.0082L82.3309 16.4667V1.04347L80.7279 0.622296V0.231201H88.0915C89.8849 0.231201 91.3275 0.65238 92.4296 1.48471C93.5316 2.32707 94.0826 3.47027 94.0826 4.91431ZM87.7509 0.943194H84.8455V8.85535H87.7509C88.873 8.85535 89.7647 8.51439 90.4359 7.83248C91.1072 7.15057 91.4478 6.16782 91.4478 4.88423C91.4478 3.62069 91.1072 2.64796 90.4359 1.96605C89.7647 1.29417 88.873 0.943194 87.7509 0.943194Z" fill="white"/>
    <path d="M98.9116 1.14375L104.031 9.35675L109.231 1.14375L107.237 0.702522V0.231201H111.715V0.702522L110.012 1.14375L104.322 10.1189V16.5569L105.895 17.0282V17.4996H100.204V17.0282L101.807 16.4867V10.149L96.1866 1.15378L94.6337 0.712545V0.241224H100.475V0.712545L98.9116 1.14375Z" fill="white"/>
</svg>