<svg xmlns="http://www.w3.org/2000/svg" width="174" height="19" viewBox="0 0 174 19" fill="none">
    <path d="M13.8022 5.33082C13.8022 6.54422 13.4015 7.55705 12.59 8.34927C11.7885 9.15152 10.7065 9.63287 9.33397 9.81337C9.9451 10.0942 10.5662 10.7961 11.2074 11.9293L14.0928 17.0035L15.6156 17.4247V17.896H11.9188L7.44046 9.95377H4.55511V16.9534L6.15808 17.4247V17.896H0.44751V17.4247L2.05047 16.8832V1.45998L0.44751 1.0388V0.647705H7.81114C9.60446 0.647705 11.0471 1.06888 12.1492 1.90122C13.2512 2.74357 13.8022 3.88678 13.8022 5.33082ZM7.47051 1.3597H4.56514V9.27186H7.47051C8.58257 9.27186 9.48425 8.9309 10.1555 8.24899C10.8267 7.56708 11.1674 6.58433 11.1674 5.30074C11.1674 4.0372 10.8267 3.06448 10.1555 2.38257C9.48425 1.70066 8.58257 1.3597 7.47051 1.3597Z" fill="white"/>
    <path d="M20.8754 17.2332H28.4895L29.5214 14.7964H30.1325L29.9822 17.9051H16.7578V17.514L18.3607 17.1229V1.459L16.7578 1.03783V0.646729H29.7418L29.8921 3.75544H29.2809L28.249 1.36875H20.8854V8.68925H26.7463L27.2372 6.84408H27.8082V11.2063H27.2372L26.7463 9.38119H20.8854V17.2332H20.8754Z" fill="white"/>
    <path d="M32.8875 17.3638L32.7172 13.864H33.3584C33.5688 14.7666 33.9595 15.4986 34.5306 16.0602C35.1016 16.6218 35.6827 16.9928 36.2838 17.1733C36.8849 17.3538 37.5362 17.4441 38.2475 17.4441C39.5399 17.4441 40.5818 17.1232 41.3532 16.4914C42.1247 15.8596 42.5154 14.9471 42.5154 13.7638C42.5154 12.781 42.2048 12.059 41.5937 11.6177C40.9825 11.1765 39.8605 10.7052 38.2274 10.2138C37.7465 10.0634 37.4159 9.96311 37.2156 9.90294C37.0152 9.84278 36.7046 9.74249 36.2838 9.59207C35.853 9.44165 35.5425 9.31129 35.3521 9.20098C35.1517 9.09067 34.8913 8.93022 34.5807 8.72966C34.2701 8.52909 34.0196 8.32853 33.8694 8.11794C33.7091 7.90735 33.5488 7.65665 33.3684 7.37587C33.1881 7.09508 33.0679 6.77418 32.9977 6.41317C32.9276 6.05216 32.8976 5.66106 32.8976 5.24991C32.8976 3.83595 33.3584 2.69275 34.2801 1.81028C35.2018 0.927808 36.6044 0.486572 38.4879 0.486572C40.0107 0.486572 41.3933 0.847585 42.6256 1.56961L43.4671 0.957893L43.7376 1.22865L43.908 4.7084H43.2668C42.9662 3.39472 42.4152 2.47213 41.5937 1.93062C40.7721 1.39913 39.8705 1.12837 38.8786 1.12837C37.7165 1.12837 36.7848 1.43924 36.0835 2.05095C35.3822 2.66267 35.0415 3.50503 35.0415 4.55797C35.0415 5.04935 35.1217 5.47053 35.272 5.80146C35.4323 6.14241 35.7128 6.43323 36.1235 6.69396C36.5343 6.94466 36.915 7.14522 37.2657 7.27558C37.6163 7.40595 38.1773 7.59648 38.9488 7.84718C39.59 8.04775 40.0809 8.20819 40.4115 8.32853C40.7421 8.44887 41.1829 8.62938 41.7039 8.86002C42.2248 9.09067 42.6356 9.32131 42.9261 9.56199C43.2167 9.80266 43.5072 10.0935 43.8078 10.4344C44.1083 10.7754 44.3287 11.1865 44.459 11.6378C44.5892 12.0991 44.6593 12.6105 44.6593 13.1621C44.6593 14.6462 44.1584 15.8295 43.1465 16.712C42.1347 17.6045 40.6018 18.0457 38.528 18.0457C36.8048 18.0457 35.312 17.6847 34.0697 16.9627L33.2081 17.6246L32.8875 17.3638Z" fill="white"/>
    <path d="M59.6171 1.3585H55.1288V16.9622L56.7317 17.4335V17.9048H51.0212V17.4335L52.6242 16.892V1.3585H48.1158L47.0839 3.79532H46.4427L46.593 0.636475H61.1299L61.2802 3.74518H60.6691L59.6171 1.3585Z" fill="white"/>
    <path d="M65.2578 15.6693C63.7349 14.0849 62.9635 11.9489 62.9635 9.2714C62.9635 6.5939 63.7249 4.45792 65.2578 2.87348C66.7806 1.28904 68.7843 0.496826 71.2689 0.496826C73.7335 0.496826 75.7271 1.28904 77.25 2.87348C78.7728 4.45792 79.5442 6.5939 79.5442 9.2714C79.5442 11.9489 78.7828 14.0849 77.25 15.6693C75.7271 17.2537 73.7234 18.046 71.2689 18.046C68.7843 18.056 66.7806 17.2638 65.2578 15.6693ZM67.1913 3.2746C66.1694 4.69859 65.6485 6.70421 65.6485 9.30148C65.6485 11.8988 66.1594 13.9044 67.1913 15.3083C68.2132 16.7122 69.5758 17.4142 71.2689 17.4142C72.962 17.4142 74.3145 16.7122 75.3464 15.3083C76.3683 13.9044 76.8893 11.8988 76.8893 9.30148C76.8893 6.70421 76.3784 4.69859 75.3464 3.2746C74.3245 1.85062 72.962 1.13862 71.2689 1.13862C69.5758 1.13862 68.2132 1.85062 67.1913 3.2746Z" fill="white"/>
    <path d="M94.8924 5.32984C94.8924 6.54324 94.4917 7.55608 93.6802 8.34829C92.8787 9.15054 91.7967 9.63189 90.4242 9.8124C91.0353 10.0932 91.6565 10.7951 92.2976 11.9283L95.183 17.0025L96.7058 17.4237V17.895H93.009L88.5307 9.95279H85.6453V16.9524L87.2483 17.4237V17.895H81.5377V17.4237L83.1407 16.8822V1.459L81.5377 1.03783V0.646729H88.9014C90.6947 0.646729 92.1373 1.06791 93.2394 1.90024C94.3414 2.7426 94.8924 3.8858 94.8924 5.32984ZM88.5607 1.35873H85.6553V9.27088H88.5607C89.6828 9.27088 90.5745 8.92992 91.2457 8.24801C91.9169 7.56611 92.2576 6.58335 92.2576 5.29976C92.2576 4.03622 91.9169 3.0635 91.2457 2.38159C90.5644 1.69968 89.6728 1.35873 88.5607 1.35873Z" fill="white"/>
    <path d="M107.085 0.646729L114.028 16.9724L115.631 17.4438V17.9151H109.89V17.4438L111.443 16.9724L109.449 12.1891H101.815L99.7415 16.9724L101.835 17.4438V17.9151H97.3771V17.4438L98.9801 16.9724L106.103 0.646729H107.085ZM105.673 3.23397L102.106 11.4971H109.129L105.673 3.23397Z" fill="white"/>
    <path d="M128.064 1.3585H123.576V16.9622L125.179 17.4335V17.9048H119.468V17.4335L121.071 16.892V1.3585H116.563L115.531 3.79532H114.89L115.04 0.636475H129.577L129.727 3.74518H129.116L128.064 1.3585Z" fill="white"/>
    <path d="M135.428 1.6092V16.9722L136.981 17.4435V17.9149H131.34V17.4435L132.943 16.902V1.57911L131.34 1.1078V0.636475H136.981V1.1078L135.428 1.6092Z" fill="white"/>
    <path d="M141.319 15.6693C139.796 14.0849 139.024 11.9489 139.024 9.2714C139.024 6.5939 139.786 4.45792 141.319 2.87348C142.841 1.28904 144.845 0.496826 147.33 0.496826C149.794 0.496826 151.788 1.28904 153.311 2.87348C154.834 4.45792 155.605 6.5939 155.605 9.2714C155.605 11.9489 154.844 14.0849 153.311 15.6693C151.788 17.2537 149.784 18.046 147.33 18.046C144.845 18.056 142.841 17.2638 141.319 15.6693ZM143.252 3.2746C142.23 4.69859 141.709 6.70421 141.709 9.30148C141.709 11.8988 142.22 13.9044 143.252 15.3083C144.274 16.7122 145.637 17.4142 147.33 17.4142C149.023 17.4142 150.375 16.7122 151.407 15.3083C152.429 13.9044 152.95 11.8988 152.95 9.30148C152.95 6.70421 152.439 4.69859 151.407 3.2746C150.385 1.85062 149.023 1.13862 147.33 1.13862C145.637 1.13862 144.274 1.85062 143.252 3.2746Z" fill="white"/>
    <path d="M157.599 17.5539L159.202 17.0123V1.57911L157.599 1.1078V0.636475H161.766L171.424 14.2947V1.45878L169.821 0.987456V0.646501H173.739V0.987456L172.136 1.47883V17.8948H171.174L159.893 1.97021V17.0825L161.496 17.5739V17.8948H157.609V17.5539H157.599Z" fill="white"/>
</svg>
