<svg xmlns="http://www.w3.org/2000/svg" width="157" height="114" viewBox="0 0 157 114" fill="none">
    <path d="M60.402 0.000488281L59.5604 0.862084C59.5504 0.82201 59.5404 0.781936 59.5303 0.75188L60.3018 0.000488281H60.402Z" fill="white"/>
    <path d="M49.3613 64.7523L51.2448 62.8369H51.2348L49.3613 64.7523Z" fill="white"/>
    <path d="M48.0991 32.8418C47.7585 33.5638 47.4379 34.2959 47.1273 35.0379L4.84897 78.0584C4.59851 77.4266 4.34804 76.7748 4.11761 76.133L48.0991 32.8418Z" fill="white"/>
    <path d="M47.0673 45.8597L43.1701 49.871C43.1901 49.8208 43.1901 49.7607 43.2001 49.7005L8.25538 85.1999C7.9448 84.6483 7.64425 84.0868 7.34369 83.5252L43.4806 47.8954C43.5407 47.4843 43.5908 47.0932 43.661 46.682L47.0573 43.3928C47.0472 43.6536 47.0673 45.8597 47.0673 45.8597Z" fill="white"/>
    <path d="M49.2611 0.592285L1.32233 49.8703C1.45257 48.7973 1.61286 47.7443 1.81324 46.6914L49.0708 0.622369C49.1309 0.612341 49.191 0.602313 49.2611 0.592285Z" fill="white"/>
    <path d="M54.7812 16.5269L2.33409 70.0167C2.1738 69.2746 2.0135 68.5225 1.86322 67.7704L54.631 15.9653C54.671 16.1458 54.7311 16.3364 54.7812 16.5269Z" fill="white"/>
    <path d="M34.4338 5.00464L5.15955 35.2995C5.77068 33.8053 6.45194 32.3512 7.1833 30.9272L33.5221 5.41579C33.8226 5.2754 34.1332 5.14503 34.4338 5.00464Z" fill="white"/>
    <path d="M54.0588 91.2458L54.05 91.2547V91.2458H54.0588Z" fill="white"/>
    <path d="M73.5464 92.8905L52.6276 113.95C52.4172 113.919 52.2068 113.919 51.9965 113.889L64.2091 101.725C64.1189 101.655 64.0187 101.585 63.9386 101.515L73.0655 92.3992L73.5464 92.8905Z" fill="white"/>
    <path d="M58.9397 96.9523L58.9296 96.9623C58.8894 96.912 58.8492 96.8618 58.809 96.8215C58.8592 96.8618 58.8995 96.912 58.9397 96.9523Z" fill="white"/>
    <path d="M69.8195 1.1834L62.3256 8.81477C62.2855 8.71449 62.2455 8.62424 62.2054 8.52396L69.6993 1.15332C69.7293 1.16335 69.7794 1.1834 69.8195 1.1834Z" fill="white"/>
    <path d="M70.4401 106.069L70.4301 106.079H70.4202L70.4301 106.069H70.4401Z" fill="white"/>
    <path d="M52.8081 7.7832L0.992101 60.8117C0.93199 59.9392 0.891916 59.0568 0.881897 58.1643L52.748 7.38208C52.778 7.51245 52.788 7.64281 52.8081 7.7832Z" fill="white"/>
    <path d="M98.7329 78.16L85.298 91.6878C85.2379 91.6176 85.1878 91.5474 85.1277 91.4572H85.1176C85.0475 91.3669 84.9573 91.2667 84.8872 91.1664L98.3622 77.7388C98.4323 77.809 98.4924 77.8792 98.5625 77.9594H98.5726L86.6605 89.9329L98.5625 77.9594C98.6126 77.9995 98.6828 78.1098 98.7329 78.16Z" fill="white"/>
    <path d="M107.449 90.2532L93.2726 104.513C93.2024 104.383 93.1523 104.252 93.0822 104.102L107.279 89.9624C107.339 90.0527 107.399 90.1529 107.449 90.2532Z" fill="white"/>
    <path d="M148.695 27.6075L108.05 68.4419C108 68.3717 107.94 68.3015 107.89 68.2313L148.665 27.5574C148.675 27.5875 148.675 27.5975 148.695 27.6075Z" fill="white"/>
    <path d="M152.272 34.5982L112.398 74.6704C112.368 74.6203 112.288 74.4799 112.258 74.4398L152.252 34.5581C152.262 34.5681 152.272 34.5882 152.272 34.5982Z" fill="white"/>
    <path d="M156.59 51.4441L119.582 88.6784C119.542 88.5882 119.501 88.4478 119.471 88.3776L156.57 51.4141C156.58 51.4241 156.59 51.4441 156.59 51.4441Z" fill="white"/>
    <path d="M154.977 42.4795L116.285 81.3785C116.265 81.3383 116.155 81.1578 116.145 81.1278L154.957 42.4495C154.967 42.4595 154.977 42.4695 154.977 42.4795Z" fill="white"/>
    <path d="M93.6135 72.3332L80.2287 85.7608C80.1486 85.6806 80.0684 85.5903 79.9783 85.5001L93.4031 72.1025C93.4733 72.1928 93.5434 72.263 93.6135 72.3332Z" fill="white"/>
    <path d="M93.7837 72.5228L80.4189 85.9705C80.3588 85.9003 80.2887 85.8301 80.2286 85.7599L93.6134 72.3323C93.6635 72.3724 93.7536 72.4827 93.7837 72.5228Z" fill="white"/>
    <path d="M153.885 75.261C153.865 75.3011 153.855 75.3512 153.835 75.3913L123.308 106.188C123.308 106.117 123.278 105.716 123.278 105.666L153.885 75.261Z" fill="white"/>
    <path d="M87.2418 110.579L85.4485 112.384C85.2781 112.334 85.0577 112.264 84.9275 112.234L87.0114 110.158C87.0614 110.248 87.1817 110.469 87.2418 110.579Z" fill="white"/>
    <path d="M144.348 21.3897L103.332 62.5751C103.272 62.5049 103.221 62.4447 103.161 62.3745L144.308 21.3396C144.318 21.3496 144.328 21.3697 144.348 21.3897Z" fill="white"/>
    <path d="M114.041 104.894L105.035 113.949C104.804 113.969 104.544 113.989 104.313 113.999L113.901 104.462C113.941 104.603 114.001 104.733 114.041 104.894Z" fill="white"/>
    <path d="M54.0588 91.2458L54.05 91.2547V91.2458H54.0588Z" fill="white"/>
    <path d="M156.64 61.9436C156.64 61.9536 156.63 61.9737 156.63 61.9837L122.086 96.7812C122.066 96.6909 122.026 96.5405 121.996 96.4101L156.64 61.9436Z" fill="white"/>
    <path d="M70.4401 106.069L70.4301 106.079H70.4202L70.4301 106.069H70.4401Z" fill="white"/>
    <path d="M139.378 15.9445L98.5727 57.3003C98.5727 57.3003 98.0417 56.7387 97.8714 56.5582L139.158 15.7239L139.378 15.9445Z" fill="white"/>
    <path d="M68.5368 87.7264L59.1694 97.2029C59.0993 97.1327 58.979 97.0024 58.929 96.9622L43.6006 112.385C43.4202 112.335 43.2499 112.275 43.0696 112.235L58.6785 96.6815C58.4581 96.4408 58.2176 96.2101 57.9972 95.9695L67.4548 86.6233C67.6651 86.8439 68.5368 87.7264 68.5368 87.7264Z" fill="white"/>
    <path d="M42.8392 60.8097V60.7194L12.4329 91.5558C12.0723 91.0845 11.7316 90.5931 11.381 90.1117L42.7691 59.1049C42.7691 58.7941 42.7391 58.4932 42.7391 58.1623L48.0289 52.9878C48.0789 53.2385 48.3995 54.5622 48.4997 54.9633C48.4997 54.9834 48.5198 54.9934 48.5198 54.9934L42.8392 60.8097Z" fill="white"/>
    <path d="M91.58 10.9211C91.6501 10.9812 91.7002 11.0213 91.7703 11.0815L73.8671 29.2424C73.8371 29.2023 73.3161 28.4702 73.226 28.3298L102.15 0.000488281H102.25L91.58 10.9211Z" fill="white"/>
    <path d="M54.7516 69.8565L46.7067 78.0595C46.6365 77.899 46.5764 77.7486 46.5263 77.5982L22.4317 101.786C22.3115 101.696 22.2013 101.605 22.0811 101.515L46.3961 77.2572C46.2558 76.8762 46.1056 76.5152 45.9753 76.1341L53.89 68.3423C53.9701 68.4827 54.6814 69.7462 54.7516 69.8565Z" fill="white"/>
    <path d="M51.2349 62.8256V62.8457L44.1918 70.0158V69.9857L17.3221 97.2019C16.9213 96.8008 16.5306 96.3896 16.1499 95.9684L43.8813 68.5416C43.9113 68.7021 43.9514 68.8625 43.9815 69.023C43.9514 68.8625 43.9213 68.7021 43.8913 68.5416C43.8312 68.2909 43.7711 68.0302 43.721 67.7695L50.5035 61.1108C50.5937 61.3214 51.0846 62.4646 51.2349 62.8256Z" fill="white"/>
    <path d="M133.628 11.0809L110.425 34.5967L93.343 51.9353C93.313 51.9052 92.802 51.3837 92.6317 51.2032L133.417 10.9204C133.487 10.9806 133.558 11.0207 133.628 11.0809Z" fill="white"/>
    <path d="M83.4842 61.9342L70.2897 75.3217C70.2396 75.2515 69.4181 74.3289 69.3279 74.2286L82.6426 61.0718C82.7528 61.1821 83.4842 61.9342 83.4842 61.9342Z" fill="white"/>
    <path d="M88.7541 67.2283L75.4094 80.7462C75.3694 80.7061 74.4677 79.7634 74.4276 79.7233L87.9026 66.396C87.9426 66.4361 88.7041 67.1782 88.7541 67.2283Z" fill="white"/>
    <path d="M85.1178 91.4567L85.1278 91.4667L86.6607 89.9224L85.1178 91.4567Z" fill="white"/>
    <path d="M103.301 84.0055L89.626 97.7741C89.606 97.734 89.3555 97.3429 89.3354 97.3028L103.021 83.6545C103.041 83.6846 103.271 83.9654 103.301 84.0055Z" fill="white"/>
    <path d="M85.2981 6.92L69.6091 22.8646C69.579 22.8446 69.559 22.7945 69.5389 22.7744V22.7644C69.4688 22.644 69.3987 22.5137 69.3285 22.4034C69.2384 22.2529 69.1382 22.0925 69.058 21.9421L90.9185 0.622369C90.9887 0.622369 91.0488 0.602313 91.1189 0.592285L85.0677 6.79967C85.0677 6.79967 85.208 6.87989 85.2981 6.92Z" fill="white"/>
    <path d="M57.5266 24.4373L50.8442 31.3266C50.8442 31.3066 50.8442 31.2765 50.8543 31.2364V31.2263C50.8943 30.8252 51.1348 29.2107 51.2049 28.8296L57.0257 23.1938C57.1058 23.4044 57.5266 24.4373 57.5266 24.4373Z" fill="white"/>
    <path d="M83.2945 104.333L76.6422 111.041C76.3216 111.152 76.011 111.252 75.6904 111.362L77.4337 109.648C77.3235 109.597 77.1932 109.537 77.093 109.497L82.8537 103.741C82.8938 103.791 83.2645 104.303 83.2945 104.333Z" fill="white"/>
    <path d="M97.5204 15.9447L78.4151 35.319C78.385 35.2789 77.7639 34.4867 77.6937 34.4064L111.546 1.15332C111.587 1.16335 111.627 1.1834 111.657 1.1834L97.3602 15.7743C97.3602 15.7743 97.4704 15.8946 97.5204 15.9447Z" fill="white"/>
    <path d="M78.0145 3.58188L65.7317 16.0869C65.7017 16.0568 65.6916 16.0167 65.6816 15.9966V15.9866C65.6215 15.8964 65.5614 15.7961 65.5213 15.6958C65.4412 15.5253 65.361 15.3649 65.2709 15.2044L75.3796 5.42705C75.6801 5.28665 75.9807 5.14626 76.2913 5.00587L76.3414 5.04598L77.8742 3.53174C77.9043 3.54177 77.9844 3.57185 78.0145 3.58188Z" fill="white"/>
    <path d="M58.8491 76.3052L50.1029 85.2001C50.0328 85.0798 49.9626 84.9494 49.8925 84.8191L28.6832 106.129C28.543 106.049 28.4127 105.978 28.2725 105.888L49.7222 84.5082C49.7222 84.5082 49.3715 83.8564 49.2012 83.5355L57.9074 74.9314C58.1077 75.2122 58.8491 76.3052 58.8491 76.3052Z" fill="white"/>
    <path d="M68.9781 44.8753L57.026 56.9692C56.9458 56.7987 56.3447 55.6555 56.2445 55.475L68.1766 43.7622C68.2768 43.9026 68.9781 44.8753 68.9781 44.8753Z" fill="white"/>
    <path d="M106.838 27.607L102.49 31.9793L88.1434 46.5601C88.1133 46.53 87.5322 45.9183 87.4421 45.818L126.975 6.82886C127.025 6.84891 127.126 6.90908 127.156 6.91911L106.818 27.577C106.818 27.577 106.828 27.597 106.838 27.607Z" fill="white"/>
    <path d="M64.7402 38.5078L53.6797 49.7192C53.6797 49.7192 53.1387 48.235 53.0685 48.0445L64.0288 37.3245C64.109 37.4649 64.6801 38.4075 64.7402 38.5078Z" fill="white"/>
    <path d="M78.6057 98.4067L63.1872 113.95C62.9467 113.97 62.7063 113.99 62.4558 114L70.4206 106.078C70.3204 106.018 70.2202 105.948 70.12 105.888L78.1549 97.8752C78.235 97.9755 78.5556 98.3365 78.6057 98.4067Z" fill="white"/>
    <path d="M73.4662 50.8133L61.0132 63.4988C60.943 63.3986 60.3119 62.4459 60.1415 62.1852L72.6948 49.8306C72.795 49.971 73.346 50.6729 73.4662 50.8133Z" fill="white"/>
    <path d="M102.45 21.3416C102.46 21.3516 102.48 21.3817 102.49 21.3917L95.1262 28.7824L94.4549 29.4543V29.4644L83.1039 41.0067C83.0538 40.9365 82.4828 40.3147 82.4327 40.2345L119.722 3.53174C119.782 3.55179 119.822 3.57185 119.872 3.58188L102.45 21.3416Z" fill="white"/>
    <path d="M63.4777 82.2415L54.2906 91.5576C54.2105 91.4574 54.0602 91.2468 54.0602 91.2468L35.6962 109.698C35.5359 109.638 35.3956 109.558 35.2454 109.498L53.8398 90.9459C53.6495 90.6651 53.4391 90.3944 53.2387 90.1136L62.4658 80.988C62.6762 81.2387 63.4075 82.1513 63.4777 82.2415Z" fill="white"/>
    <path d="M78.3447 56.5083L65.4508 69.6049C65.4007 69.5347 64.5992 68.4918 64.5291 68.4016L77.5132 55.5957C77.5532 55.6458 78.2946 56.4681 78.3447 56.5083Z" fill="white"/>
    <path d="M60.913 31.7095L55.3828 37.3152L51.3353 41.4267C51.2752 41.0557 51.0748 39.8222 51.0347 39.5013L60.2919 30.4861C60.382 30.6666 60.8529 31.5992 60.913 31.7095Z" fill="white"/>
    <path d="M80.2083 85.7899L80.2282 85.77L80.2083 85.7899Z" fill="white"/>
    <path d="M111.136 97.1725L94.4652 113.949C94.2548 113.919 94.0444 113.919 93.834 113.889L110.986 96.8215C111.046 96.9318 111.096 97.0421 111.136 97.1725Z" fill="white"/>
</svg>