<svg xmlns="http://www.w3.org/2000/svg" width="234" height="19" viewBox="0 0 234 19" fill="none">
    <path d="M4.56499 2.01567V17.3787L6.11785 17.85V18.3213H0.477417V17.85L2.08038 17.3085V1.99562L0.477417 1.5243V1.05298H6.11785V1.5243L4.56499 2.01567Z" fill="white"/>
    <path d="M7.62036 17.9704L9.22334 17.4288V1.99562L7.62036 1.5243V1.05298H11.7881L21.446 14.7112V1.87528L19.843 1.40396V1.05298H23.7603V1.39393L22.1573 1.88531V18.3013H21.1955L9.91462 2.37668V17.499L11.5176 17.9904V18.3113H7.63039V17.9704H7.62036Z" fill="white"/>
    <path d="M25.9146 17.7691L25.7443 14.2693H26.3855C26.5959 15.1718 26.9866 15.9039 27.5577 16.4655C28.1287 17.027 28.7098 17.3981 29.3109 17.5786C29.912 17.7591 30.5632 17.8493 31.2746 17.8493C32.567 17.8493 33.6089 17.5284 34.3803 16.8967C35.1517 16.2649 35.5425 15.3523 35.5425 14.169C35.5425 13.1863 35.2319 12.4642 34.6208 12.023C34.0096 11.5818 32.8876 11.1105 31.2545 10.6191C30.7736 10.4687 30.443 10.3684 30.2426 10.3082C30.0423 10.248 29.7317 10.1478 29.3109 9.99734C28.8801 9.84692 28.5695 9.71656 28.3792 9.60625C28.1788 9.49594 27.9184 9.33549 27.6078 9.13493C27.2972 8.93436 27.0467 8.7338 26.8965 8.52321C26.7362 8.31262 26.5759 8.06192 26.3955 7.78113C26.2152 7.50035 26.095 7.17945 26.0248 6.81844C25.9547 6.45743 25.9247 6.06633 25.9247 5.65518C25.9247 4.24122 26.3855 3.09802 27.3072 2.21555C28.2289 1.33308 29.6315 0.891846 31.515 0.891846C33.0378 0.891846 34.4204 1.25286 35.6527 1.97488L36.4942 1.36316L36.7647 1.63392L36.9351 5.11367H36.2939C35.9933 3.79999 35.4423 2.87741 34.6208 2.33589C33.7992 1.8044 32.8976 1.53364 31.9057 1.53364C30.7436 1.53364 29.8119 1.84451 29.1106 2.45623C28.4093 3.06794 28.0686 3.9103 28.0686 4.96324C28.0686 5.45462 28.1488 5.8758 28.299 6.20673C28.4593 6.54768 28.7399 6.8385 29.1506 7.09923C29.5614 7.34993 29.9421 7.55049 30.2927 7.68086C30.6434 7.81122 31.2044 8.00175 31.9759 8.25246C32.6171 8.45302 33.108 8.61347 33.4386 8.7338C33.7692 8.85414 34.21 9.03465 34.731 9.26529C35.2519 9.49594 35.6627 9.72658 35.9532 9.96726C36.2438 10.2079 36.5343 10.4987 36.8349 10.8397C37.1354 11.1807 37.3558 11.5918 37.4861 12.0431C37.6163 12.5044 37.6864 13.0158 37.6864 13.5673C37.6864 15.0515 37.1855 16.2348 36.1736 17.1173C35.1618 17.9997 33.6289 18.451 31.5551 18.451C29.8319 18.451 28.3391 18.09 27.0968 17.368L26.2352 18.0298L25.9146 17.7691Z" fill="white"/>
    <path d="M52.6437 1.775H48.1554V17.3787L49.7584 17.85V18.3213H44.0478V17.85L45.6507 17.3085V1.775H41.1424L40.1105 4.21182H39.4693L39.6196 1.05298H54.1565L54.3068 4.16168H53.6956L52.6437 1.775Z" fill="white"/>
    <path d="M60.0077 2.01567V17.3787L61.5606 17.85V18.3213H55.9201V17.85L57.5231 17.3085V1.99562L55.9201 1.5243V1.05298H61.5606V1.5243L60.0077 2.01567Z" fill="white"/>
    <path d="M76.3878 1.775H71.8995V17.3787L73.5025 17.85V18.3213H67.7919V17.85L69.3949 17.3085V1.775H64.8865L63.8546 4.21182H63.2134L63.3637 1.05298H77.9006L78.0509 4.16168H77.4398L76.3878 1.775Z" fill="white"/>
    <path d="M94.742 1.89534V11.9535C94.742 13.9391 94.1208 15.5235 92.8785 16.6868C91.6362 17.85 90.0132 18.4417 87.9895 18.4417C85.9657 18.4417 84.3427 17.86 83.1004 16.6868C81.8581 15.5235 81.2369 13.9391 81.2369 11.9535V1.99562L79.634 1.5243V1.05298H85.3445V1.5243L83.7416 2.01567V11.9535C83.7416 13.6683 84.2125 14.992 85.1442 15.9346C86.0759 16.8773 87.3182 17.3486 88.8611 17.3486C90.424 17.3486 91.6863 16.8673 92.6381 15.9146C93.5898 14.9619 94.0807 13.6382 94.0807 11.9435V1.87528L92.4778 1.40396V1.05298H96.3249V1.39393L94.742 1.89534Z" fill="white"/>
    <path d="M111.092 1.775H106.604V17.3787L108.207 17.85V18.3213H102.496V17.85L104.099 17.3085V1.775H99.5911L98.5592 4.21182H97.918L98.0683 1.05298H112.605L112.756 4.16168H112.144L111.092 1.775Z" fill="white"/>
    <path d="M118.466 17.6495H126.08L127.112 15.2126H127.723L127.573 18.3213H114.348V17.9302L115.951 17.5391V1.87528L114.348 1.4541V1.05298H127.332L127.482 4.16168H126.871L125.839 1.775H118.476V9.0955H124.337L124.828 7.25033H125.399V11.6125H124.828L124.337 9.78744H118.476V17.6495H118.466Z" fill="white"/>
    <path d="M137.792 16.0848C136.269 14.5004 135.497 12.3644 135.497 9.68692C135.497 7.00943 136.259 4.87344 137.792 3.28901C139.314 1.70457 141.318 0.912354 143.803 0.912354C146.267 0.912354 148.261 1.70457 149.784 3.28901C151.307 4.87344 152.078 7.00943 152.078 9.68692C152.078 12.3644 151.317 14.5004 149.784 16.0848C148.261 17.6693 146.257 18.4615 143.803 18.4615C141.328 18.4615 139.324 17.6693 137.792 16.0848ZM139.725 3.6801C138.703 5.10409 138.182 7.10971 138.182 9.70698C138.182 12.3043 138.693 14.3099 139.725 15.7138C140.757 17.1177 142.11 17.8197 143.803 17.8197C145.496 17.8197 146.848 17.1177 147.88 15.7138C148.912 14.3099 149.423 12.3043 149.423 9.70698C149.423 7.10971 148.912 5.10409 147.88 3.6801C146.858 2.25612 145.496 1.54412 143.803 1.54412C142.12 1.55415 140.757 2.26614 139.725 3.6801Z" fill="white"/>
    <path d="M163.64 9.80749H158.2V17.3286L160.534 17.85V18.3213H154.082V17.85L155.685 17.3085V1.87528L154.082 1.4541V1.05298H166.766L166.916 4.16168H166.305L165.273 1.775H158.2V9.12558H163.64L164.131 7.30047H164.702V11.6426H164.131L163.64 9.80749Z" fill="white"/>
    <path d="M174.149 17.85L175.752 17.3085V1.99562L174.149 1.5243V1.05298H179.859V1.5243L178.256 2.01567V9.21584H187.343V1.99562L185.74 1.5243V1.05298H191.451V1.5243L189.848 2.01567V17.3787L191.451 17.85V18.3213H185.74V17.85L187.343 17.3085V9.90777H178.256V17.3787L179.859 17.85V18.3213H174.149V17.85Z" fill="white"/>
    <path d="M202.161 1.05298L209.104 17.3787L210.707 17.85V18.3213H204.966V17.85L206.519 17.3787L204.525 12.5953H196.891L194.817 17.3787L196.911 17.85V18.3213H192.453V17.85L194.056 17.3787L201.169 1.05298H202.161ZM200.758 3.65025L197.192 11.9134H204.215L200.758 3.65025Z" fill="white"/>
    <path d="M215.776 2.01567V17.3787L217.329 17.85V18.3213H211.689V17.85L213.292 17.3085V1.99562L211.689 1.5243V1.05298H217.329V1.5243L215.776 2.01567Z" fill="white"/>
    <path d="M232.187 5.74612C232.187 6.95952 231.786 7.97235 230.974 8.76457C230.173 9.56682 229.091 10.0482 227.718 10.2287C228.329 10.5095 228.951 11.2114 229.592 12.3446L232.477 17.4188L234 17.84V18.3113H230.303L225.825 10.3691H222.939V17.3687L224.542 17.84V18.3113H218.832V17.84L220.435 17.2985V1.87528L218.832 1.4541V1.05298H226.195C227.989 1.05298 229.431 1.47416 230.534 2.30649C231.636 3.14885 232.187 4.29205 232.187 5.74612ZM225.855 1.775H222.949V9.68716H225.855C226.977 9.68716 227.869 9.3462 228.54 8.66429C229.211 7.98238 229.552 6.99963 229.552 5.71604C229.552 4.4525 229.211 3.47977 228.54 2.79786C227.869 2.11595 226.967 1.775 225.855 1.775Z" fill="white"/>
</svg>